<svg width="71" height="71" viewBox="0 0 71 71" fill="none" xmlns="http://www.w3.org/2000/svg">
<g id="car-round-svgrepo-com 1">
<path id="Vector" d="M65.0846 35.8102C65.0846 41.6614 63.3495 47.3813 60.0987 52.2465C56.8479 57.1116 52.2274 60.9036 46.8215 63.1427C41.4157 65.3819 35.4672 65.9678 29.7283 64.8263C23.9895 63.6848 18.718 60.8671 14.5805 56.7296C10.4431 52.5921 7.62541 47.3207 6.48388 41.5818C5.34235 35.843 5.92822 29.8945 8.16741 24.4886C10.4066 19.0828 14.1985 14.4623 19.0637 11.2115C23.9288 7.96069 29.6487 6.22559 35.5 6.22559C39.3851 6.22559 43.2322 6.99081 46.8215 8.47758C50.4109 9.96434 53.6723 12.1435 56.4195 14.8907C59.1666 17.6379 61.3458 20.8993 62.8326 24.4886C64.3193 28.078 65.0846 31.9251 65.0846 35.8102ZM50.3315 30.3731L47.499 23.0675C47.2721 22.5304 46.8959 22.0696 46.415 21.7398C45.9342 21.41 45.3689 21.2249 44.786 21.2066H26.3597C25.7762 21.2242 25.2101 21.4089 24.7285 21.7388C24.247 22.0687 23.8702 22.5299 23.643 23.0675L20.8142 30.3731C19.6873 30.6819 18.6927 31.3516 17.9827 32.2796C17.2727 33.2076 16.8864 34.3428 16.883 35.5112V43.1568C16.884 43.4707 17.0092 43.7714 17.2311 43.9933C17.453 44.2153 17.7538 44.3404 18.0676 44.3414H19.9211V48.6275C19.9221 48.8628 20.0162 49.088 20.1829 49.254C20.3496 49.42 20.5752 49.5132 20.8105 49.5132H24.1437C24.3783 49.5122 24.603 49.4186 24.7689 49.2527C24.9348 49.0868 25.0284 48.8621 25.0294 48.6275V44.3414H46.1201V48.6275C46.1211 48.8621 46.2147 49.0868 46.3806 49.2527C46.5465 49.4186 46.7712 49.5122 47.0057 49.5132H50.339C50.5742 49.5132 50.7999 49.42 50.9666 49.254C51.1332 49.088 51.2274 48.8628 51.2284 48.6275V44.3414H53.0818C53.3957 44.3404 53.6964 44.2153 53.9184 43.9933C54.1403 43.7714 54.2654 43.4707 54.2664 43.1568V35.5112C54.263 34.3428 53.8768 33.2076 53.1668 32.2796C52.4568 31.3516 51.4622 30.6819 50.3353 30.3731H50.3315ZM22.5107 32.5479C21.9254 32.5479 21.3532 32.7215 20.8665 33.0467C20.3798 33.3719 20.0004 33.8341 19.7764 34.3749C19.5524 34.9157 19.4938 35.5108 19.608 36.0849C19.7222 36.659 20.0041 37.1863 20.418 37.6002C20.8319 38.0141 21.3592 38.296 21.9333 38.4102C22.5075 38.5244 23.1025 38.4658 23.6433 38.2418C24.1841 38.0178 24.6463 37.6384 24.9715 37.1517C25.2967 36.665 25.4703 36.0928 25.4703 35.5075C25.4703 34.7226 25.1585 33.9698 24.6035 33.4147C24.0484 32.8597 23.2957 32.5479 22.5107 32.5479ZM44.7823 23.572C44.8885 23.5885 44.9896 23.6286 45.0783 23.6894C45.1669 23.7502 45.2407 23.8301 45.2943 23.9233L47.7232 30.1862H23.4188L25.8477 23.9233C25.9009 23.8306 25.9742 23.7509 26.0621 23.6901C26.15 23.6294 26.2504 23.589 26.3559 23.572H44.7786H44.7823ZM48.6686 32.5479C48.0833 32.5479 47.5111 32.7215 47.0244 33.0467C46.5377 33.3719 46.1583 33.8341 45.9343 34.3749C45.7103 34.9157 45.6517 35.5108 45.7659 36.0849C45.8801 36.659 46.162 37.1863 46.5759 37.6002C46.9898 38.0141 47.5171 38.296 48.0912 38.4102C48.6653 38.5244 49.2604 38.4658 49.8012 38.2418C50.342 38.0178 50.8042 37.6384 51.1294 37.1517C51.4546 36.665 51.6282 36.0928 51.6282 35.5075C51.6282 34.7232 51.3169 33.971 50.7627 33.4161C50.2085 32.8611 49.4529 32.5489 48.6686 32.5479Z" fill="#1A1C74"/>
</g>
</svg>
