<svg width="36" height="30" viewBox="0 0 36 30" fill="none" xmlns="http://www.w3.org/2000/svg">
<g id="Car icon">
<path id="Vector" d="M1 23.229V24.229H2H3.55651V25.6116C3.55651 26.6491 3.99451 27.4824 4.67818 28.0353C5.33675 28.5679 6.17198 28.8028 6.96173 28.8C7.75154 28.7971 8.5838 28.5563 9.23922 28.0247C9.91895 27.4733 10.3598 26.6441 10.3598 25.6116V24.229H17.9974H18.0025H25.6402V25.6116C25.6402 26.6441 26.0811 27.4733 26.7608 28.0247C27.4162 28.5563 28.2485 28.7971 29.0383 28.8C29.828 28.8028 30.6632 28.5679 31.3218 28.0353C32.0055 27.4824 32.4435 26.6491 32.4435 25.6116V24.229H34H35V23.229V15.7673C35 14.427 34.3731 13.4055 33.6137 12.7261C33.0655 12.2356 32.4187 11.8948 31.8178 11.7188L29.3982 6.32087C29.3979 6.32026 29.3976 6.31965 29.3974 6.31904C29.0832 5.61074 28.5742 4.93113 27.8068 4.43282C27.0376 3.93335 26.0683 3.65465 24.8962 3.65465H22.1835V3.12342C22.1835 2.60313 22.0146 2.0733 21.583 1.68696C21.1692 1.31655 20.6491 1.20001 20.1847 1.20001H18.0025H17.9974H15.8566C15.3922 1.20001 14.8721 1.31655 14.4583 1.68696C14.0267 2.0733 13.8578 2.60313 13.8578 3.12342V3.65465H11.1019C9.92984 3.65465 8.96048 3.93335 8.19127 4.43282C7.42392 4.93109 6.91503 5.61063 6.60081 6.31886C6.60052 6.31953 6.60022 6.3202 6.59992 6.32087L4.18029 11.7189C3.5794 11.8948 2.93296 12.2357 2.38507 12.7263C1.62613 13.406 1 14.4274 1 15.7673V23.229Z" stroke="white" stroke-width="2"/>
<path id="Vector_2" d="M17.9974 12.4526H7.60708L9.58634 7.9148C9.83377 7.26634 10.2051 6.798 11.0711 6.79102H24.9272C25.7932 6.798 26.1644 7.26634 26.4118 7.9148L28.3911 12.4526H17.9974ZM7.03461 18.6674C5.80934 18.6674 4.81592 17.7819 4.81592 16.6896C4.81592 15.5974 5.80934 14.7119 7.03461 14.7119C8.25987 14.7119 9.25322 15.5974 9.25322 16.6896C9.25322 17.7819 8.25987 18.6674 7.03461 18.6674ZM28.9636 18.6674C30.1889 18.6674 31.1822 17.7819 31.1822 16.6896C31.1822 15.5974 30.1889 14.7119 28.9636 14.7119C27.7383 14.7119 26.7449 15.5974 26.7449 16.6896C26.7449 17.7819 27.7383 18.6674 28.9636 18.6674Z" fill="white"/>
</g>
</svg>
