<svg width="40" height="40" viewBox="0 0 40 40" fill="none" xmlns="http://www.w3.org/2000/svg">
<g id="Icon">
<g id="Icon_2">
<path d="M29.4282 27.7614C27.6302 29.5594 23.5725 33.6171 21.4135 35.7761C20.6324 36.5572 19.3686 36.558 18.5875 35.777C16.4639 33.6533 12.4933 29.6828 10.572 27.7614C5.365 22.5544 5.365 14.1122 10.572 8.90524C15.779 3.69825 24.2212 3.69825 29.4282 8.90524C34.6352 14.1122 34.6352 22.5544 29.4282 27.7614Z" stroke="white" stroke-width="3" stroke-linecap="round" stroke-linejoin="round"/>
<path d="M25.0001 18.3333C25.0001 21.0948 22.7615 23.3333 20.0001 23.3333C17.2387 23.3333 15.0001 21.0948 15.0001 18.3333C15.0001 15.5719 17.2387 13.3333 20.0001 13.3333C22.7615 13.3333 25.0001 15.5719 25.0001 18.3333Z" stroke="white" stroke-width="3" stroke-linecap="round" stroke-linejoin="round"/>
</g>
</g>
</svg>
