<svg width="33" height="32" viewBox="0 0 33 32" fill="none" xmlns="http://www.w3.org/2000/svg">
<g id="Icon">
<path id="Vector" d="M31.3571 5.6389L21.62 2.40461H21.5514C21.4026 2.32806 21.2387 2.28515 21.0714 2.2789C20.8996 2.27863 20.7306 2.32188 20.58 2.40461H20.4886L17.2314 3.6389C16.9687 2.96643 16.5809 2.34983 16.0886 1.82176C15.4901 1.18059 14.752 0.685808 13.9315 0.375748C13.111 0.0656878 12.2301 -0.0513306 11.3571 0.0337576C10.4842 0.118846 9.64248 0.403757 8.89731 0.866419C8.15213 1.32908 7.52347 1.95708 7.06002 2.70176C6.83819 3.0611 6.65798 3.44452 6.52287 3.84461L2.71716 2.57604C2.46378 2.49054 2.19365 2.46675 1.92923 2.50667C1.66481 2.54659 1.41374 2.64905 1.19689 2.80554C0.98004 2.96203 0.803681 3.16802 0.682474 3.40639C0.561268 3.64476 0.498716 3.90863 0.50002 4.17604V5.70747C0.50002 6.01057 0.620428 6.30126 0.834755 6.51559C1.04908 6.72992 1.33977 6.85032 1.64288 6.85032C1.94598 6.85032 2.23667 6.72992 2.451 6.51559C2.66533 6.30126 2.78573 6.01057 2.78573 5.70747V5.01033L6.2143 6.15318C6.26733 6.89676 6.46533 7.62278 6.79716 8.29032L10.8772 16.5075C10.9707 16.7007 11.1169 16.8636 11.2988 16.9777C11.4807 17.0917 11.691 17.1522 11.9057 17.1522C12.1204 17.1522 12.3308 17.0917 12.5127 16.9777C12.6946 16.8636 12.8407 16.7007 12.9343 16.5075L17.0143 8.29032C17.3575 7.63242 17.5709 6.9146 17.6429 6.17604C17.6486 6.09614 17.6486 6.01594 17.6429 5.93604L19.9286 5.06747V26.6332L13.0714 29.2046V20.5646C13.0714 20.2615 12.951 19.9708 12.7367 19.7565C12.5224 19.5422 12.2317 19.4217 11.9286 19.4217C11.6255 19.4217 11.3348 19.5422 11.1205 19.7565C10.9061 19.9708 10.7857 20.2615 10.7857 20.5646V29.2617L2.78573 26.5989V10.2789C2.78573 9.97579 2.66533 9.6851 2.451 9.47077C2.23667 9.25645 1.94598 9.13604 1.64288 9.13604C1.33977 9.13604 1.04908 9.25645 0.834755 9.47077C0.620428 9.6851 0.50002 9.97579 0.50002 10.2789V27.0332C0.50002 27.3857 0.610171 27.7294 0.815076 28.0163C1.01998 28.3032 1.3094 28.5188 1.64288 28.6332L11.3686 31.8675H11.4486C11.5963 31.9471 11.7608 31.9902 11.9286 31.9932C12.1036 31.9903 12.2757 31.9473 12.4314 31.8675H12.5114L21.0714 28.6332L24.1114 29.6503C24.3994 29.7473 24.7141 29.7259 24.9863 29.5909C25.2585 29.4559 25.4659 29.2183 25.5629 28.9303C25.6599 28.6424 25.6385 28.3277 25.5035 28.0555C25.3684 27.7833 25.1308 27.5759 24.8429 27.4789L22.2143 26.5989V5.01033L30.2143 7.67318V29.2617L29.4371 28.9989C29.1492 28.9019 28.8345 28.9233 28.5623 29.0583C28.2901 29.1933 28.0827 29.4309 27.9857 29.7189C27.8887 30.0068 27.9101 30.3215 28.0451 30.5937C28.1801 30.8659 28.4178 31.0733 28.7057 31.1703L30.2829 31.696C30.4522 31.7541 30.6296 31.785 30.8086 31.7875C31.1649 31.7846 31.5118 31.6729 31.8029 31.4675C32.0179 31.309 32.1929 31.1024 32.3139 30.8643C32.4349 30.6262 32.4987 30.3631 32.5 30.096V7.2389C32.5 6.88636 32.3898 6.54264 32.1849 6.25577C31.98 5.96891 31.6906 5.75323 31.3571 5.6389ZM14.9914 7.27318L11.9286 13.4217L8.86573 7.27318C8.59935 6.74514 8.47409 6.15718 8.50213 5.56642C8.53016 4.97566 8.71054 4.40219 9.02573 3.90176C9.30813 3.46027 9.68799 3.08941 10.1361 2.81765C10.5842 2.5459 11.0887 2.38049 11.6107 2.33413C12.1327 2.28778 12.6584 2.36172 13.1474 2.55026C13.6364 2.73881 14.0757 3.03694 14.4314 3.42176C14.7551 3.77437 15.0031 4.18947 15.1604 4.64151C15.3176 5.09356 15.3807 5.57299 15.3457 6.05033C15.3005 6.47562 15.1806 6.88958 14.9914 7.27318Z" fill="white"/>
<path id="Vector_2" d="M11.9285 4.56461C11.7025 4.56461 11.4815 4.63163 11.2936 4.75721C11.1056 4.88279 10.9591 5.06128 10.8726 5.27011C10.7861 5.47894 10.7635 5.70873 10.8076 5.93042C10.8517 6.15211 10.9605 6.35575 11.1204 6.51558C11.2802 6.67542 11.4838 6.78426 11.7055 6.82836C11.9272 6.87246 12.157 6.84982 12.3659 6.76332C12.5747 6.67682 12.7532 6.53034 12.8788 6.3424C13.0043 6.15446 13.0714 5.9335 13.0714 5.70746C13.0714 5.40436 12.9509 5.11367 12.7366 4.89934C12.5223 4.68501 12.2316 4.56461 11.9285 4.56461Z" fill="white"/>
</g>
</svg>
