<svg xmlns="http://www.w3.org/2000/svg" height="100px" viewBox="0 -960 960 960" width="100px" fill="red">
  <defs>
    <filter id="dropshadow" height="130%">
      <feGaussianBlur in="SourceAlpha" stdDeviation="3"/> <!-- stdDeviation is how much to blur -->
      <feOffset dx="3" dy="3" result="offsetblur"/> <!-- how much to offset -->
      <feComponentTransfer>
        <feFuncA type="linear" slope="0.5"/> <!-- slope is the transparency of the shadow -->
      </feComponentTransfer>
      <feMerge> 
        <feMergeNode/> <!-- this contains the offset blurred image -->
        <feMergeNode in="SourceGraphic"/> <!-- this contains the original image -->
      </feMerge>
    </filter>
  </defs>
  <style>
    .border {
      stroke: #000000; /* Black border */
      stroke-width: 2; /* Border width */
    }
  </style>
  <g filter="url(#dropshadow)" class="border">
    <path d="m319-280 161-73 161 73 15-15-176-425-176 425 15 15ZM480-80q-83 0-156-31.5T197-197q-54-54-85.5-127T80-480q0-83 31.5-156T197-763q54-54 127-85.5T480-880q83 0 156 31.5T763-763q54 54 85.5 127T880-480q0 83-31.5 156T763-197q-54 54-127 85.5T480-80Zm0-80q134 0 227-93t93-227q0-134-93-227t-227-93q-134 0-227 93t-93 227q0 134 93 227t227 93Zm0-320Z"/>
  </g>
</svg>

